The Dead Pool is a 1988 film and is the fifth, final and shortest film in the Dirty Harry film series, set in San Francisco, California and starring Clint Eastwood as Inspector 'Dirty' Harry Callahan. Liam Neeson and Jim Carrey also appear in the film.




L'ispettore Harry Callaghan, sfuggito ad una serie di attentati commissionati da un delinquente da lui incarcerato tempo prima, deve vedersela anche con un misterioso killer psicopatico che semina il terrore in città uccidendo alcuni personaggi famosi, inclusi in una lista di uno strano gioco definito "Bingo con il morto".
 
http://img714.imageshack.us/i/1988thedeadpool720pitae.png/
http://img188.imageshack.us/i/1988thedeadpool720pitae.png/
http://img28.imageshack.us/i/1988thedeadpool720pitae.png/


General
Format                           : Matroska
File size                        : 4.49 GiB
Duration                         : 1h 31mn
Overall bit rate                 : 7 054 Kbps
Encoded date                     : UTC 2010-02-15 09:57:06
Writing application              : mkvmerge v3.1.0 ('Happy up here') built on Jan 19 2010 12:09:24
Writing library                  : libebml v0.7.9 + libmatroska v0.8.1

Video
ID                               : 1
Format                           : AVC
Format/Info                      : Advanced Video Codec
Format profile                   : High@L5.1
Format settings, CABAC           : Yes
Format settings, ReFrames        : 5 frames
Muxing mode                      : Container profile=Unknown@5.1
Codec ID                         : V_MPEG4/ISO/AVC
Duration                         : 1h 31mn
Bit rate                         : 6 081 Kbps
Nominal bit rate                 : 6 220 Kbps
Width                            : 1 280 pixels
Height                           : 720 pixels
Display aspect ratio             : 16:9
Frame rate                       : 23.976 fps
Resolution                       : 8 bits
Colorimetry                      : 4:2:0
Scan type                        : Progressive
Bits/(Pixel*Frame)               : 0.275
Stream size                      : 3.87 GiB (86%)
Writing library                  : x264 core 59 r871 100d067
Encoding settings                : cabac=1 / ref=5 / deblock=1:0:0 / analyse=0x3:0x133 / me=umh / subme=6 / brdo=1 / mixed_ref=1 / me_range=16 / chroma_me=1 / trellis=1 / 8x8dct=1 / cqm=0 / deadzone=21,11 / chroma_qp_offset=0 / threads=3 / nr=0 / decimate=1 / mbaff=0 / bframes=3 / b_pyramid=1 / b_adapt=1 / b_bias=0 / direct=1 / wpredb=1 / bime=1 / keyint=250 / keyint_min=25 / scenecut=40(pre) / rc=2pass / bitrate=6220 / ratetol=1.0 / rceq='blurCplx^(1-qComp)' / qcomp=1.00 / qpmin=10 / qpmax=51 / qpstep=4 / cplxblur=20.0 / qblur=0.5 / ip_ratio=1.40 / pb_ratio=1.30 / aq=2:1.00
Language                         : English

Audio #1
ID                               : 2
Format                           : AC-3
Format/Info                      : Audio Coding 3
Codec ID                         : A_AC3
Duration                         : 1h 31mn
Bit rate mode                    : Constant
Bit rate                         : 192 Kbps
Channel(s)                       : 2 channels
Channel positions                : L R
Sampling rate                    : 48.0 KHz
Video delay                      : 250ms
Stream size                      : 125 MiB (3%)
Language                         : Italian

Audio #2
ID                               : 3
Format                           : AC-3
Format/Info                      : Audio Coding 3
Codec ID                         : A_AC3
Duration                         : 1h 31mn
Bit rate mode                    : Constant
Bit rate                         : 640 Kbps
Channel(s)                       : 6 channels
Channel positions                : Front: L C R, Surround: L R, LFE
Sampling rate                    : 48.0 KHz
Stream size                      : 418 MiB (9%)

